<svg xmlns="http://www.w3.org/2000/svg" xmlns:xlink="http://www.w3.org/1999/xlink" width="500" zoomAndPan="magnify" viewBox="0 0 375 374.999991" height="500" preserveAspectRatio="xMidYMid meet" version="1.0"><defs><g/><clipPath id="860f971a89"><path d="M 25 107.152344 L 67 107.152344 L 67 175 L 25 175 Z M 25 107.152344 " clip-rule="nonzero"/></clipPath><clipPath id="e3fdd49463"><path d="M 41 139 L 143 139 L 143 267.652344 L 41 267.652344 Z M 41 139 " clip-rule="nonzero"/></clipPath><clipPath id="7d18aafe08"><path d="M 11.816406 107.152344 L 113 107.152344 L 113 248 L 11.816406 248 Z M 11.816406 107.152344 " clip-rule="nonzero"/></clipPath><clipPath id="9f722733f5"><path d="M 11.816406 194 L 40 194 L 40 267.652344 L 11.816406 267.652344 Z M 11.816406 194 " clip-rule="nonzero"/></clipPath><clipPath id="d55f6431e4"><path d="M 184 2 L 231 2 L 231 49 L 184 49 Z M 184 2 " clip-rule="nonzero"/></clipPath><clipPath id="135fe9122c"><rect x="0" width="231" y="0" height="128"/></clipPath></defs><path fill="#ffffff" d="M 43.554688 174.289062 C 41.175781 174.289062 39.246094 172.359375 39.246094 169.980469 L 39.246094 143.597656 C 39.246094 130.835938 49.628906 120.488281 62.351562 120.488281 C 64.730469 120.488281 66.660156 122.417969 66.660156 124.796875 C 66.660156 127.175781 64.730469 129.101562 62.351562 129.101562 C 54.351562 129.101562 47.859375 135.59375 47.859375 143.597656 L 47.859375 169.980469 C 47.859375 172.359375 45.929688 174.289062 43.554688 174.289062 Z M 43.554688 174.289062 " fill-opacity="1" fill-rule="nonzero"/><g clip-path="url(#860f971a89)"><path fill="#ffffff" d="M 30.214844 174.289062 C 27.835938 174.289062 25.910156 172.359375 25.910156 169.980469 L 25.910156 143.597656 C 25.910156 123.511719 42.265625 107.152344 62.351562 107.152344 C 64.730469 107.152344 66.660156 109.082031 66.660156 111.457031 C 66.660156 113.835938 64.730469 115.765625 62.351562 115.765625 C 47.023438 115.765625 34.523438 128.234375 34.523438 143.597656 L 34.523438 169.980469 C 34.523438 172.359375 32.59375 174.289062 30.214844 174.289062 Z M 30.214844 174.289062 " fill-opacity="1" fill-rule="nonzero"/></g><path fill="#ffffff" d="M 70.835938 207.742188 C 70.835938 212.433594 67.046875 216.226562 62.351562 216.226562 C 57.660156 216.226562 53.867188 212.433594 53.867188 207.742188 C 53.867188 203.050781 57.660156 199.257812 62.351562 199.257812 C 67.046875 199.257812 70.835938 203.082031 70.835938 207.742188 Z M 70.835938 207.742188 " fill-opacity="1" fill-rule="nonzero"/><g clip-path="url(#e3fdd49463)"><path fill="#ffffff" d="M 62.351562 247.078125 L 54.03125 247.078125 C 52.261719 247.078125 50.589844 246.308594 49.464844 244.988281 C 48.339844 243.640625 47.828125 241.871094 48.117188 240.136719 L 50.625 224.421875 C 44.644531 220.246094 41.304688 213.207031 41.945312 205.816406 C 42.75 196.558594 49.371094 187.238281 62.386719 187.238281 C 64.28125 187.238281 65.824219 188.78125 65.824219 190.679688 C 65.824219 192.574219 64.28125 194.117188 62.386719 194.117188 C 53.160156 194.117188 49.304688 200.738281 48.824219 206.394531 C 48.339844 211.855469 51.167969 217.0625 56.023438 219.632812 C 57.339844 220.308594 58.046875 221.753906 57.820312 223.234375 L 55.121094 240.167969 L 62.351562 240.167969 C 64.25 240.167969 65.792969 241.710938 65.792969 243.609375 C 65.792969 245.535156 64.25 247.078125 62.351562 247.078125 Z M 112.746094 244.378906 L 112.746094 202.152344 C 112.746094 199.773438 110.816406 197.84375 108.4375 197.84375 C 106.058594 197.84375 104.132812 199.773438 104.132812 202.152344 L 104.132812 244.378906 C 104.132812 252.542969 97.480469 259.226562 89.285156 259.226562 L 47.472656 259.226562 C 45.09375 259.226562 43.167969 261.15625 43.167969 263.535156 C 43.167969 265.910156 45.09375 267.839844 47.472656 267.839844 L 89.285156 267.839844 C 102.234375 267.839844 112.746094 257.296875 112.746094 244.378906 Z M 112.648438 159.824219 L 116.921875 144.785156 C 117.566406 142.503906 116.246094 140.09375 113.964844 139.449219 C 111.683594 138.808594 109.273438 140.125 108.632812 142.40625 L 104.355469 157.449219 C 103.714844 159.730469 105.03125 162.140625 107.3125 162.78125 C 107.699219 162.910156 108.117188 162.941406 108.503906 162.941406 C 110.367188 162.976562 112.101562 161.753906 112.648438 159.824219 Z M 121.421875 171.007812 L 136.207031 162.78125 C 138.292969 161.625 139.035156 158.988281 137.875 156.933594 C 136.71875 154.84375 134.085938 154.105469 132.027344 155.261719 L 117.246094 163.488281 C 115.15625 164.644531 114.417969 167.28125 115.574219 169.339844 C 116.34375 170.753906 117.824219 171.554688 119.332031 171.554688 C 120.039062 171.554688 120.78125 171.394531 121.421875 171.007812 Z M 142.570312 187.175781 C 143.210938 184.894531 141.894531 182.484375 139.613281 181.839844 L 122.097656 176.859375 C 119.816406 176.214844 117.40625 177.535156 116.761719 179.816406 C 116.121094 182.097656 117.4375 184.507812 119.71875 185.148438 L 137.234375 190.132812 C 137.621094 190.261719 138.039062 190.292969 138.421875 190.292969 C 140.320312 190.292969 142.054688 189.070312 142.570312 187.175781 Z M 142.570312 187.175781 " fill-opacity="1" fill-rule="nonzero"/></g><g clip-path="url(#7d18aafe08)"><path fill="#ffffff" d="M 16.203125 203.566406 C 13.824219 203.566406 11.898438 201.636719 11.898438 199.257812 L 11.898438 189.777344 C 11.898438 176.828125 22.4375 166.316406 35.359375 166.316406 L 89.285156 166.316406 C 102.234375 166.316406 112.746094 176.859375 112.746094 189.777344 C 112.746094 192.15625 110.816406 194.085938 108.4375 194.085938 C 106.058594 194.085938 104.132812 192.15625 104.132812 189.777344 C 104.132812 181.613281 97.480469 174.929688 89.285156 174.929688 L 35.359375 174.929688 C 27.195312 174.929688 20.511719 181.582031 20.511719 189.777344 L 20.511719 199.257812 C 20.542969 201.636719 18.613281 203.566406 16.203125 203.566406 Z M 88 154.234375 C 93.367188 154.167969 98.796875 150.472656 98.796875 143.597656 C 98.796875 134.339844 95.292969 125.503906 88.964844 118.722656 C 82.117188 111.363281 72.378906 107.152344 62.351562 107.152344 C 59.976562 107.152344 58.046875 109.082031 58.046875 111.457031 C 58.046875 113.835938 59.976562 115.765625 62.351562 115.765625 C 70.003906 115.765625 77.425781 118.980469 82.664062 124.601562 C 87.484375 129.777344 90.152344 136.527344 90.152344 143.597656 C 90.152344 145.234375 88.898438 145.589844 87.839844 145.589844 C 87.035156 145.589844 86.296875 145.363281 85.878906 144.945312 C 85.683594 144.753906 85.429688 144.398438 85.429688 143.597656 C 85.429688 130.835938 75.046875 120.488281 62.320312 120.488281 C 59.941406 120.488281 58.015625 122.417969 58.015625 124.796875 C 58.015625 127.175781 59.941406 129.101562 62.320312 129.101562 C 70.324219 129.101562 76.816406 135.59375 76.816406 143.597656 C 76.816406 146.554688 77.875 149.125 79.835938 151.085938 C 81.859375 153.078125 84.753906 154.234375 87.773438 154.234375 C 87.871094 154.234375 87.933594 154.234375 88 154.234375 Z M 75.242188 244.957031 C 76.367188 243.609375 76.878906 241.871094 76.589844 240.105469 L 74.082031 224.390625 C 80.027344 220.210938 83.402344 213.175781 82.761719 205.78125 C 81.957031 196.527344 75.335938 187.207031 62.320312 187.207031 C 60.425781 187.207031 58.882812 188.75 58.882812 190.644531 C 58.882812 192.542969 60.425781 194.085938 62.320312 194.085938 C 71.542969 194.085938 75.402344 200.703125 75.882812 206.359375 C 76.367188 211.824219 73.539062 217.03125 68.683594 219.601562 C 67.367188 220.277344 66.660156 221.722656 66.886719 223.199219 L 69.585938 240.136719 L 62.351562 240.136719 C 60.457031 240.136719 58.914062 241.679688 58.914062 243.574219 C 58.914062 245.472656 60.457031 247.015625 62.351562 247.015625 L 70.675781 247.015625 C 72.445312 247.078125 74.117188 246.308594 75.242188 244.957031 Z M 69.808594 241.199219 Z M 69.808594 241.199219 " fill-opacity="1" fill-rule="nonzero"/></g><g clip-path="url(#9f722733f5)"><path fill="#ffffff" d="M 35.359375 267.839844 C 22.40625 267.839844 11.898438 257.296875 11.898438 244.378906 L 11.898438 199.257812 C 11.898438 196.878906 13.824219 194.953125 16.203125 194.953125 C 18.582031 194.953125 20.511719 196.878906 20.511719 199.257812 L 20.511719 244.378906 C 20.511719 252.542969 27.164062 259.226562 35.359375 259.226562 C 37.734375 259.226562 39.664062 261.15625 39.664062 263.535156 C 39.664062 265.910156 37.734375 267.839844 35.359375 267.839844 Z M 35.359375 267.839844 " fill-opacity="1" fill-rule="nonzero"/></g><g transform="matrix(1, 0, 0, 1, 144, 129)"><g clip-path="url(#135fe9122c)"><g fill="#ffffff" fill-opacity="1"><g transform="translate(2.073166, 48.205454)"><g><path d="M 21.15625 1.140625 C 18.375 1.140625 15.929688 0.847656 13.828125 0.265625 C 11.722656 -0.316406 9.921875 -1.109375 8.421875 -2.109375 C 6.929688 -3.109375 5.71875 -4.253906 4.78125 -5.546875 C 3.84375 -6.835938 3.15625 -8.210938 2.71875 -9.671875 C 2.289062 -11.140625 2.078125 -12.609375 2.078125 -14.078125 L 12.671875 -14.078125 C 12.671875 -12.179688 13.40625 -10.648438 14.875 -9.484375 C 16.34375 -8.328125 18.425781 -7.75 21.125 -7.75 C 24.09375 -7.75 26.21875 -8.179688 27.5 -9.046875 C 28.78125 -9.921875 29.421875 -11.21875 29.421875 -12.9375 C 29.421875 -13.988281 29.066406 -14.859375 28.359375 -15.546875 C 27.660156 -16.234375 26.628906 -16.820312 25.265625 -17.3125 C 23.910156 -17.800781 22.253906 -18.269531 20.296875 -18.71875 C 18.753906 -19.101562 17.1875 -19.539062 15.59375 -20.03125 C 14 -20.519531 12.460938 -21.125 10.984375 -21.84375 C 9.503906 -22.570312 8.175781 -23.445312 7 -24.46875 C 5.832031 -25.5 4.90625 -26.734375 4.21875 -28.171875 C 3.539062 -29.609375 3.203125 -31.285156 3.203125 -33.203125 C 3.203125 -35.847656 3.847656 -38.171875 5.140625 -40.171875 C 6.441406 -42.179688 8.390625 -43.753906 10.984375 -44.890625 C 13.578125 -46.035156 16.835938 -46.609375 20.765625 -46.609375 C 24.734375 -46.609375 28.035156 -46.015625 30.671875 -44.828125 C 33.316406 -43.648438 35.296875 -41.988281 36.609375 -39.84375 C 37.921875 -37.707031 38.578125 -35.191406 38.578125 -32.296875 L 27.984375 -32.296875 C 27.984375 -33.140625 27.753906 -33.953125 27.296875 -34.734375 C 26.835938 -35.515625 26.070312 -36.148438 25 -36.640625 C 23.9375 -37.128906 22.476562 -37.375 20.625 -37.375 C 18.75 -37.375 17.320312 -37.160156 16.34375 -36.734375 C 15.363281 -36.316406 14.695312 -35.785156 14.34375 -35.140625 C 13.988281 -34.492188 13.8125 -33.820312 13.8125 -33.125 C 13.8125 -31.675781 14.613281 -30.535156 16.21875 -29.703125 C 17.820312 -28.867188 20.40625 -28.117188 23.96875 -27.453125 C 26.238281 -26.984375 28.351562 -26.375 30.3125 -25.625 C 32.28125 -24.875 34 -23.929688 35.46875 -22.796875 C 36.9375 -21.660156 38.082031 -20.28125 38.90625 -18.65625 C 39.738281 -17.03125 40.15625 -15.113281 40.15625 -12.90625 C 40.15625 -9.875 39.351562 -7.316406 37.75 -5.234375 C 36.144531 -3.148438 33.921875 -1.566406 31.078125 -0.484375 C 28.234375 0.597656 24.925781 1.140625 21.15625 1.140625 Z M 21.15625 1.140625 "/></g></g></g><g fill="#ffffff" fill-opacity="1"><g transform="translate(44.094148, 48.205454)"><g><path d="M 37.015625 0 L 4.640625 0 L 4.640625 -45.46875 L 36.703125 -45.46875 L 36.703125 -36.078125 L 15.25 -36.078125 L 15.25 -27.484375 L 33.671875 -27.484375 L 33.671875 -18.65625 L 15.25 -18.65625 L 15.25 -9.421875 L 37.015625 -9.421875 Z M 37.015625 0 "/></g></g></g><g fill="#ffffff" fill-opacity="1"><g transform="translate(83.073028, 48.205454)"><g><path d="M 15.25 0 L 4.640625 0 L 4.640625 -45.46875 L 13.90625 -45.46875 L 35.578125 -17.25 L 35.578125 -45.46875 L 46.171875 -45.46875 L 46.171875 0 L 37.015625 0 L 15.28125 -28.25 L 15.25 -28.25 Z M 15.25 0 "/></g></g></g><g fill="#ffffff" fill-opacity="1"><g transform="translate(133.885975, 48.205454)"><g><path d="M 15.25 0 L 4.640625 0 L 4.640625 -45.46875 L 15.25 -45.46875 L 15.25 -27.75 L 35.109375 -27.75 L 35.109375 -45.46875 L 45.734375 -45.46875 L 45.734375 0 L 35.109375 0 L 35.109375 -18.359375 L 15.25 -18.359375 Z M 15.25 0 "/></g></g></g><g clip-path="url(#d55f6431e4)"><g fill="#ffffff" fill-opacity="1"><g transform="translate(184.264349, 48.205454)"><g><path d="M 47.40625 0 L 36.203125 0 L 33.265625 -7.390625 L 14.3125 -7.390625 L 11.359375 0 L 0.171875 0 L 18.828125 -45.5 L 28.75 -45.5 Z M 23.4375 -30.390625 L 17.78125 -16.1875 L 29.78125 -16.1875 L 24.140625 -30.390625 L 23.84375 -31.796875 L 23.734375 -31.796875 Z M 23.4375 -30.390625 "/></g></g></g></g><g fill="#ffffff" fill-opacity="1"><g transform="translate(10.283987, 114.664808)"><g><path d="M 26.046875 1.03125 C 23.347656 1.03125 20.78125 0.628906 18.34375 -0.171875 C 15.914062 -0.972656 13.6875 -2.097656 11.65625 -3.546875 C 9.632812 -4.992188 7.878906 -6.710938 6.390625 -8.703125 C 4.910156 -10.703125 3.765625 -12.894531 2.953125 -15.28125 C 2.140625 -17.664062 1.734375 -20.171875 1.734375 -22.796875 C 1.734375 -25.453125 2.140625 -27.972656 2.953125 -30.359375 C 3.765625 -32.742188 4.910156 -34.921875 6.390625 -36.890625 C 7.878906 -38.859375 9.632812 -40.570312 11.65625 -42.03125 C 13.6875 -43.5 15.914062 -44.628906 18.34375 -45.421875 C 20.78125 -46.210938 23.347656 -46.609375 26.046875 -46.609375 C 27.960938 -46.609375 29.898438 -46.375 31.859375 -45.90625 C 33.816406 -45.4375 35.703125 -44.71875 37.515625 -43.75 C 39.335938 -42.78125 41.007812 -41.539062 42.53125 -40.03125 C 44.0625 -38.53125 45.347656 -36.75 46.390625 -34.6875 C 47.441406 -32.625 48.160156 -30.265625 48.546875 -27.609375 L 37.75 -27.609375 C 37.207031 -29.835938 36.351562 -31.628906 35.1875 -32.984375 C 34.019531 -34.347656 32.625 -35.34375 31 -35.96875 C 29.382812 -36.59375 27.632812 -36.90625 25.75 -36.90625 C 23.914062 -36.90625 22.1875 -36.582031 20.5625 -35.9375 C 18.9375 -35.289062 17.507812 -34.351562 16.28125 -33.125 C 15.050781 -31.90625 14.085938 -30.425781 13.390625 -28.6875 C 12.691406 -26.945312 12.34375 -24.972656 12.34375 -22.765625 C 12.34375 -20.515625 12.691406 -18.515625 13.390625 -16.765625 C 14.085938 -15.015625 15.050781 -13.535156 16.28125 -12.328125 C 17.507812 -11.128906 18.9375 -10.21875 20.5625 -9.59375 C 22.1875 -8.96875 23.914062 -8.65625 25.75 -8.65625 C 27.613281 -8.65625 29.351562 -8.96875 30.96875 -9.59375 C 32.59375 -10.21875 33.992188 -11.207031 35.171875 -12.5625 C 36.347656 -13.925781 37.195312 -15.710938 37.71875 -17.921875 L 48.546875 -17.921875 C 48.160156 -15.265625 47.441406 -12.910156 46.390625 -10.859375 C 45.347656 -8.816406 44.070312 -7.039062 42.5625 -5.53125 C 41.0625 -4.03125 39.398438 -2.796875 37.578125 -1.828125 C 35.753906 -0.859375 33.859375 -0.140625 31.890625 0.328125 C 29.929688 0.796875 27.984375 1.03125 26.046875 1.03125 Z M 26.046875 1.03125 "/></g></g></g><g fill="#ffffff" fill-opacity="1"><g transform="translate(60.595504, 114.664808)"><g><path d="M 37.015625 0 L 4.640625 0 L 4.640625 -45.46875 L 36.703125 -45.46875 L 36.703125 -36.078125 L 15.25 -36.078125 L 15.25 -27.484375 L 33.671875 -27.484375 L 33.671875 -18.65625 L 15.25 -18.65625 L 15.25 -9.421875 L 37.015625 -9.421875 Z M 37.015625 0 "/></g></g></g><g fill="#ffffff" fill-opacity="1"><g transform="translate(99.574383, 114.664808)"><g><path d="M 15.25 0 L 4.640625 0 L 4.640625 -45.46875 L 24.609375 -45.46875 C 27.015625 -45.46875 29.210938 -45.097656 31.203125 -44.359375 C 33.203125 -43.628906 34.9375 -42.582031 36.40625 -41.21875 C 37.875 -39.863281 39.007812 -38.25 39.8125 -36.375 C 40.613281 -34.5 41.015625 -32.425781 41.015625 -30.15625 C 41.015625 -28.101562 40.65625 -26.207031 39.9375 -24.46875 C 39.226562 -22.726562 38.234375 -21.21875 36.953125 -19.9375 C 35.671875 -18.65625 34.148438 -17.640625 32.390625 -16.890625 L 42.09375 0 L 29.953125 0 L 22 -15.21875 L 15.25 -15.21875 Z M 15.25 -36.046875 L 15.25 -24.078125 L 24.171875 -24.078125 C 25.347656 -24.078125 26.40625 -24.335938 27.34375 -24.859375 C 28.28125 -25.378906 29.023438 -26.097656 29.578125 -27.015625 C 30.140625 -27.929688 30.421875 -28.976562 30.421875 -30.15625 C 30.421875 -31.226562 30.140625 -32.207031 29.578125 -33.09375 C 29.023438 -33.988281 28.273438 -34.703125 27.328125 -35.234375 C 26.378906 -35.773438 25.328125 -36.046875 24.171875 -36.046875 Z M 15.25 -36.046875 "/></g></g></g><g fill="#ffffff" fill-opacity="1"><g transform="translate(142.497951, 114.664808)"><g><path d="M 24.5 0 L 13.96875 0 L 13.96875 -36.046875 L 1.234375 -36.046875 L 1.234375 -45.46875 L 37.203125 -45.46875 L 37.203125 -36.046875 L 24.5 -36.046875 Z M 24.5 0 "/></g></g></g><g fill="#ffffff" fill-opacity="1"><g transform="translate(176.027468, 114.664808)"><g><path d="M 47.40625 0 L 36.203125 0 L 33.265625 -7.390625 L 14.3125 -7.390625 L 11.359375 0 L 0.171875 0 L 18.828125 -45.5 L 28.75 -45.5 Z M 23.4375 -30.390625 L 17.78125 -16.1875 L 29.78125 -16.1875 L 24.140625 -30.390625 L 23.84375 -31.796875 L 23.734375 -31.796875 Z M 23.4375 -30.390625 "/></g></g></g></g></g></svg>