<svg xmlns="http://www.w3.org/2000/svg" xmlns:xlink="http://www.w3.org/1999/xlink" width="500" zoomAndPan="magnify" viewBox="0 0 375 374.999991" height="500" preserveAspectRatio="xMidYMid meet" version="1.0"><defs><g/><clipPath id="768a34b196"><path d="M 5.140625 110.410156 L 76.390625 110.410156 L 76.390625 284.410156 L 5.140625 284.410156 Z M 5.140625 110.410156 " clip-rule="nonzero"/></clipPath><clipPath id="aac43a1eb4"><path d="M 26 0.878906 L 48 0.878906 L 48 114 L 26 114 Z M 26 0.878906 " clip-rule="nonzero"/></clipPath><clipPath id="5af6661850"><path d="M 36 0.878906 L 66 0.878906 L 66 22 L 36 22 Z M 36 0.878906 " clip-rule="nonzero"/></clipPath><clipPath id="6954548c75"><path d="M 0.140625 102 L 71.390625 102 L 71.390625 174.398438 L 0.140625 174.398438 Z M 0.140625 102 " clip-rule="nonzero"/></clipPath><clipPath id="57320ca305"><rect x="0" width="72" y="0" height="175"/></clipPath><clipPath id="c5ba0c0267"><rect x="0" width="268" y="0" height="180"/></clipPath><clipPath id="9014950732"><rect x="0" width="210" y="0" height="34"/></clipPath></defs><g clip-path="url(#768a34b196)"><g transform="matrix(1, 0, 0, 1, 5, 110)"><g clip-path="url(#57320ca305)"><g clip-path="url(#aac43a1eb4)"><path fill="#ffffff" d="M 26.734375 0.941406 L 26.734375 113.070312 L 47.121094 113.070312 L 47.121094 0.941406 Z M 26.734375 0.941406 " fill-opacity="1" fill-rule="evenodd"/></g><g clip-path="url(#5af6661850)"><path fill="#ffffff" d="M 36.929688 0.941406 L 36.929688 21.328125 L 65.378906 21.328125 L 65.378906 0.941406 Z M 36.929688 0.941406 " fill-opacity="1" fill-rule="evenodd"/></g><path fill="#ffffff" d="M 36.929688 31.523438 L 36.929688 51.910156 L 65.378906 51.910156 L 65.378906 31.523438 Z M 36.929688 31.523438 " fill-opacity="1" fill-rule="evenodd"/><g clip-path="url(#6954548c75)"><path fill="#ffffff" d="M 20.441406 138.554688 C 20.441406 130.109375 27.289062 123.265625 35.730469 123.265625 C 44.175781 123.265625 51.023438 130.109375 51.023438 138.554688 C 51.023438 147 44.175781 153.847656 35.730469 153.847656 C 27.289062 153.847656 20.441406 147 20.441406 138.554688 Z M 35.730469 102.878906 C 16.027344 102.878906 0.0546875 118.851562 0.0546875 138.554688 C 0.0546875 158.261719 16.027344 174.234375 35.730469 174.234375 C 55.4375 174.234375 71.410156 158.261719 71.410156 138.554688 C 71.410156 118.851562 55.4375 102.878906 35.730469 102.878906 Z M 35.730469 102.878906 " fill-opacity="1" fill-rule="evenodd"/></g></g></g></g><g transform="matrix(1, 0, 0, 1, 102, 76)"><g clip-path="url(#c5ba0c0267)"><g fill="#ffffff" fill-opacity="1"><g transform="translate(0.313753, 89.012503)"><g><path d="M 14.125 -16.828125 C 14.125 -14.128906 15.117188 -11.976562 17.109375 -10.375 C 19.109375 -8.78125 21.960938 -7.984375 25.671875 -7.984375 C 29.390625 -7.984375 32.222656 -8.582031 34.171875 -9.78125 C 36.117188 -10.988281 37.09375 -12.757812 37.09375 -15.09375 C 37.09375 -16.476562 36.585938 -17.675781 35.578125 -18.6875 C 34.578125 -19.707031 32.191406 -20.660156 28.421875 -21.546875 L 19.140625 -23.703125 C 13.265625 -25.097656 9.265625 -26.988281 7.140625 -29.375 C 5.023438 -31.769531 3.96875 -35.070312 3.96875 -39.28125 C 3.96875 -44.207031 5.722656 -48.238281 9.234375 -51.375 C 12.742188 -54.507812 18.003906 -56.078125 25.015625 -56.078125 C 31.972656 -56.078125 37.253906 -54.316406 40.859375 -50.796875 C 44.460938 -47.285156 46.28125 -43.160156 46.3125 -38.421875 L 35.34375 -38.421875 C 35.09375 -41.097656 34.050781 -43.132812 32.21875 -44.53125 C 30.382812 -45.9375 27.695312 -46.640625 24.15625 -46.640625 C 21.300781 -46.640625 19 -46.050781 17.25 -44.875 C 15.507812 -43.695312 14.640625 -42.101562 14.640625 -40.09375 C 14.640625 -38.707031 15.023438 -37.554688 15.796875 -36.640625 C 16.566406 -35.722656 17.804688 -35.054688 19.515625 -34.640625 L 34.109375 -31.03125 C 39.390625 -29.738281 43.03125 -27.882812 45.03125 -25.46875 C 47.039062 -23.0625 48.046875 -20.046875 48.046875 -16.421875 C 48.046875 -10.472656 45.984375 -6.003906 41.859375 -3.015625 C 37.734375 -0.0351562 32.625 1.453125 26.53125 1.453125 C 18.65625 1.453125 12.789062 -0.222656 8.9375 -3.578125 C 5.082031 -6.941406 3.15625 -11.359375 3.15625 -16.828125 Z M 14.125 -16.828125 "/></g></g></g><g fill="#ffffff" fill-opacity="1"><g transform="translate(51.336752, 89.012503)"><g><path d="M 45.75 -44.96875 L 16.765625 -44.96875 L 16.765625 -33.484375 L 43.40625 -33.484375 L 43.40625 -23.828125 L 16.765625 -23.828125 L 16.765625 -9.65625 L 47.046875 -9.65625 L 47.046875 0 L 5.578125 0 L 5.578125 -54.625 L 45.75 -54.625 Z M 45.75 -44.96875 "/></g></g></g><g fill="#ffffff" fill-opacity="1"><g transform="translate(101.727994, 89.012503)"><g><path d="M 39.46875 -54.625 L 50.09375 -54.625 L 50.09375 0 L 38.6875 0 L 16.390625 -38.984375 L 16.234375 -38.984375 L 16.234375 0 L 5.578125 0 L 5.578125 -54.625 L 17.609375 -54.625 L 39.3125 -16.578125 L 39.46875 -16.578125 Z M 39.46875 -54.625 "/></g></g></g><g fill="#ffffff" fill-opacity="1"><g transform="translate(157.396193, 89.012503)"><g><path d="M 49.71875 -54.625 L 49.71875 0 L 38.3125 0 L 38.3125 -24.484375 L 16.984375 -24.484375 L 16.984375 0 L 5.578125 0 L 5.578125 -54.625 L 16.984375 -54.625 L 16.984375 -33.921875 L 38.3125 -33.921875 L 38.3125 -54.625 Z M 49.71875 -54.625 "/></g></g></g><g fill="#ffffff" fill-opacity="1"><g transform="translate(212.692776, 89.012503)"><g><path d="M 19.8125 -20.703125 L 33.75 -20.703125 L 26.9375 -42.328125 L 26.796875 -42.328125 Z M 12.96875 0 L 0.921875 0 L 20.40625 -54.625 L 33.59375 -54.625 L 52.84375 0 L 40.4375 0 L 36.9375 -11.265625 L 16.765625 -11.265625 Z M 12.96875 0 "/></g></g></g><g fill="#ffffff" fill-opacity="1"><g transform="translate(0.313753, 158.942753)"><g><path d="M 40.65625 -36.75 C 39.238281 -43.039062 35.203125 -46.1875 28.546875 -46.1875 C 24.398438 -46.1875 21.101562 -44.5 18.65625 -41.125 C 16.207031 -37.757812 14.984375 -33.082031 14.984375 -27.09375 C 14.984375 -21.46875 16.171875 -16.953125 18.546875 -13.546875 C 20.921875 -10.140625 24.253906 -8.4375 28.546875 -8.4375 C 35.085938 -8.4375 39.125 -11.867188 40.65625 -18.734375 L 52.0625 -18.734375 C 51.25 -13.128906 48.796875 -8.363281 44.703125 -4.4375 C 40.617188 -0.507812 35.15625 1.453125 28.3125 1.453125 C 20.6875 1.453125 14.617188 -1.066406 10.109375 -6.109375 C 5.597656 -11.148438 3.34375 -18.191406 3.34375 -27.234375 C 3.34375 -35.878906 5.582031 -42.847656 10.0625 -48.140625 C 14.550781 -53.429688 20.6875 -56.078125 28.46875 -56.078125 C 35.28125 -56.078125 40.785156 -54.238281 44.984375 -50.5625 C 49.179688 -46.882812 51.539062 -42.28125 52.0625 -36.75 Z M 40.65625 -36.75 "/></g></g></g><g fill="#ffffff" fill-opacity="1"><g transform="translate(55.350215, 158.942753)"><g><path d="M 45.75 -44.96875 L 16.765625 -44.96875 L 16.765625 -33.484375 L 43.40625 -33.484375 L 43.40625 -23.828125 L 16.765625 -23.828125 L 16.765625 -9.65625 L 47.046875 -9.65625 L 47.046875 0 L 5.578125 0 L 5.578125 -54.625 L 45.75 -54.625 Z M 45.75 -44.96875 "/></g></g></g><g fill="#ffffff" fill-opacity="1"><g transform="translate(105.741456, 158.942753)"><g><path d="M 30.140625 -30.578125 C 33.140625 -30.578125 35.363281 -31.144531 36.8125 -32.28125 C 38.257812 -33.425781 38.984375 -35.351562 38.984375 -38.0625 C 38.984375 -40.289062 38.304688 -42.039062 36.953125 -43.3125 C 35.609375 -44.59375 33.625 -45.234375 31 -45.234375 L 16.765625 -45.234375 L 16.765625 -30.578125 Z M 5.578125 -54.625 L 33.1875 -54.625 C 38.8125 -54.625 43.082031 -53.117188 46 -50.109375 C 48.925781 -47.097656 50.390625 -43.460938 50.390625 -39.203125 C 50.390625 -32.859375 47.578125 -28.523438 41.953125 -26.203125 C 44.554688 -25.210938 46.359375 -23.78125 47.359375 -21.90625 C 48.367188 -20.039062 48.875 -16.664062 48.875 -11.78125 C 48.875 -6.925781 49.050781 -4.070312 49.40625 -3.21875 C 49.769531 -2.363281 50.394531 -1.773438 51.28125 -1.453125 L 51.28125 0 L 38.6875 0 C 37.863281 -2.445312 37.453125 -5.988281 37.453125 -10.625 C 37.453125 -14.519531 37.191406 -17.03125 36.671875 -18.15625 C 36.160156 -19.28125 35.300781 -20.097656 34.09375 -20.609375 C 32.894531 -21.117188 31.046875 -21.375 28.546875 -21.375 L 16.765625 -21.375 L 16.765625 0 L 5.578125 0 Z M 5.578125 -54.625 "/></g></g></g><g fill="#ffffff" fill-opacity="1"><g transform="translate(159.811714, 158.942753)"><g><path d="M 29.03125 0 L 17.609375 0 L 17.609375 -44.96875 L 1.109375 -44.96875 L 1.109375 -54.625 L 45.5625 -54.625 L 45.5625 -44.96875 L 29.03125 -44.96875 Z M 29.03125 0 "/></g></g></g><g fill="#ffffff" fill-opacity="1"><g transform="translate(206.486786, 158.942753)"><g><path d="M 19.8125 -20.703125 L 33.75 -20.703125 L 26.9375 -42.328125 L 26.796875 -42.328125 Z M 12.96875 0 L 0.921875 0 L 20.40625 -54.625 L 33.59375 -54.625 L 52.84375 0 L 40.4375 0 L 36.9375 -11.265625 L 16.765625 -11.265625 Z M 12.96875 0 "/></g></g></g></g></g><g transform="matrix(1, 0, 0, 1, 106, 256)"><g clip-path="url(#9014950732)"><g fill="#9f9b89" fill-opacity="1"><g transform="translate(0.756894, 12.576114)"><g><path d="M 6.71875 -6.765625 C 6.6875 -7.367188 6.457031 -7.84375 6.03125 -8.1875 C 5.601562 -8.539062 5.039062 -8.71875 4.34375 -8.71875 C 3.644531 -8.71875 3.101562 -8.570312 2.71875 -8.28125 C 2.34375 -7.988281 2.15625 -7.570312 2.15625 -7.03125 C 2.15625 -6.738281 2.238281 -6.488281 2.40625 -6.28125 C 2.570312 -6.070312 2.867188 -5.921875 3.296875 -5.828125 L 6.03125 -5.203125 C 6.757812 -5.035156 7.300781 -4.726562 7.65625 -4.28125 C 8.019531 -3.832031 8.203125 -3.285156 8.203125 -2.640625 C 8.203125 -1.691406 7.851562 -0.972656 7.15625 -0.484375 C 6.46875 0.00390625 5.566406 0.25 4.453125 0.25 C 3.609375 0.25 2.941406 0.144531 2.453125 -0.0625 C 1.960938 -0.28125 1.523438 -0.625 1.140625 -1.09375 C 0.765625 -1.570312 0.578125 -2.238281 0.578125 -3.09375 L 1.796875 -3.09375 C 1.796875 -2.382812 2.03125 -1.832031 2.5 -1.4375 C 2.976562 -1.050781 3.625 -0.859375 4.4375 -0.859375 C 5.226562 -0.859375 5.84375 -0.992188 6.28125 -1.265625 C 6.71875 -1.546875 6.9375 -1.945312 6.9375 -2.46875 C 6.9375 -2.9375 6.804688 -3.285156 6.546875 -3.515625 C 6.285156 -3.742188 5.773438 -3.945312 5.015625 -4.125 L 2.953125 -4.609375 C 2.265625 -4.765625 1.75 -5.035156 1.40625 -5.421875 C 1.070312 -5.816406 0.90625 -6.296875 0.90625 -6.859375 C 0.90625 -7.722656 1.191406 -8.429688 1.765625 -8.984375 C 2.347656 -9.546875 3.160156 -9.828125 4.203125 -9.828125 C 5.367188 -9.828125 6.269531 -9.582031 6.90625 -9.09375 C 7.539062 -8.601562 7.882812 -7.828125 7.9375 -6.765625 Z M 6.71875 -6.765625 "/></g></g></g><g fill="#9f9b89" fill-opacity="1"><g transform="translate(13.572508, 12.576114)"><g><path d="M 8.546875 -9.5625 L 8.546875 -3.359375 C 8.546875 -2.296875 8.207031 -1.425781 7.53125 -0.75 C 6.863281 -0.0820312 5.914062 0.25 4.6875 0.25 C 3.539062 0.25 2.640625 -0.0546875 1.984375 -0.671875 C 1.335938 -1.296875 1.015625 -2.132812 1.015625 -3.1875 L 1.015625 -9.5625 L 2.296875 -9.5625 L 2.296875 -3.546875 C 2.296875 -2.660156 2.515625 -1.992188 2.953125 -1.546875 C 3.390625 -1.109375 3.976562 -0.890625 4.71875 -0.890625 C 5.507812 -0.890625 6.125 -1.109375 6.5625 -1.546875 C 7.007812 -1.992188 7.234375 -2.648438 7.234375 -3.515625 L 7.234375 -9.5625 Z M 8.546875 -9.5625 "/></g></g></g><g fill="#9f9b89" fill-opacity="1"><g transform="translate(26.583244, 12.576114)"><g><path d="M 5.859375 -3.9375 L 4.453125 -8.140625 L 4.421875 -8.140625 L 2.890625 -3.9375 Z M 2.5 -2.78125 L 1.484375 0 L 0.15625 0 L 3.765625 -9.5625 L 5.21875 -9.5625 L 8.6875 0 L 7.28125 0 L 6.328125 -2.78125 Z M 2.5 -2.78125 "/></g></g></g><g fill="#9f9b89" fill-opacity="1"><g transform="translate(39.262272, 12.576114)"><g><path d="M 6.71875 -6.765625 C 6.6875 -7.367188 6.457031 -7.84375 6.03125 -8.1875 C 5.601562 -8.539062 5.039062 -8.71875 4.34375 -8.71875 C 3.644531 -8.71875 3.101562 -8.570312 2.71875 -8.28125 C 2.34375 -7.988281 2.15625 -7.570312 2.15625 -7.03125 C 2.15625 -6.738281 2.238281 -6.488281 2.40625 -6.28125 C 2.570312 -6.070312 2.867188 -5.921875 3.296875 -5.828125 L 6.03125 -5.203125 C 6.757812 -5.035156 7.300781 -4.726562 7.65625 -4.28125 C 8.019531 -3.832031 8.203125 -3.285156 8.203125 -2.640625 C 8.203125 -1.691406 7.851562 -0.972656 7.15625 -0.484375 C 6.46875 0.00390625 5.566406 0.25 4.453125 0.25 C 3.609375 0.25 2.941406 0.144531 2.453125 -0.0625 C 1.960938 -0.28125 1.523438 -0.625 1.140625 -1.09375 C 0.765625 -1.570312 0.578125 -2.238281 0.578125 -3.09375 L 1.796875 -3.09375 C 1.796875 -2.382812 2.03125 -1.832031 2.5 -1.4375 C 2.976562 -1.050781 3.625 -0.859375 4.4375 -0.859375 C 5.226562 -0.859375 5.84375 -0.992188 6.28125 -1.265625 C 6.71875 -1.546875 6.9375 -1.945312 6.9375 -2.46875 C 6.9375 -2.9375 6.804688 -3.285156 6.546875 -3.515625 C 6.285156 -3.742188 5.773438 -3.945312 5.015625 -4.125 L 2.953125 -4.609375 C 2.265625 -4.765625 1.75 -5.035156 1.40625 -5.421875 C 1.070312 -5.816406 0.90625 -6.296875 0.90625 -6.859375 C 0.90625 -7.722656 1.191406 -8.429688 1.765625 -8.984375 C 2.347656 -9.546875 3.160156 -9.828125 4.203125 -9.828125 C 5.367188 -9.828125 6.269531 -9.582031 6.90625 -9.09375 C 7.539062 -8.601562 7.882812 -7.828125 7.9375 -6.765625 Z M 6.71875 -6.765625 "/></g></g></g><g fill="#9f9b89" fill-opacity="1"><g transform="translate(52.077886, 12.576114)"><g/></g></g><g fill="#9f9b89" fill-opacity="1"><g transform="translate(59.326014, 12.576114)"><g><path d="M 6.71875 -6.765625 C 6.6875 -7.367188 6.457031 -7.84375 6.03125 -8.1875 C 5.601562 -8.539062 5.039062 -8.71875 4.34375 -8.71875 C 3.644531 -8.71875 3.101562 -8.570312 2.71875 -8.28125 C 2.34375 -7.988281 2.15625 -7.570312 2.15625 -7.03125 C 2.15625 -6.738281 2.238281 -6.488281 2.40625 -6.28125 C 2.570312 -6.070312 2.867188 -5.921875 3.296875 -5.828125 L 6.03125 -5.203125 C 6.757812 -5.035156 7.300781 -4.726562 7.65625 -4.28125 C 8.019531 -3.832031 8.203125 -3.285156 8.203125 -2.640625 C 8.203125 -1.691406 7.851562 -0.972656 7.15625 -0.484375 C 6.46875 0.00390625 5.566406 0.25 4.453125 0.25 C 3.609375 0.25 2.941406 0.144531 2.453125 -0.0625 C 1.960938 -0.28125 1.523438 -0.625 1.140625 -1.09375 C 0.765625 -1.570312 0.578125 -2.238281 0.578125 -3.09375 L 1.796875 -3.09375 C 1.796875 -2.382812 2.03125 -1.832031 2.5 -1.4375 C 2.976562 -1.050781 3.625 -0.859375 4.4375 -0.859375 C 5.226562 -0.859375 5.84375 -0.992188 6.28125 -1.265625 C 6.71875 -1.546875 6.9375 -1.945312 6.9375 -2.46875 C 6.9375 -2.9375 6.804688 -3.285156 6.546875 -3.515625 C 6.285156 -3.742188 5.773438 -3.945312 5.015625 -4.125 L 2.953125 -4.609375 C 2.265625 -4.765625 1.75 -5.035156 1.40625 -5.421875 C 1.070312 -5.816406 0.90625 -6.296875 0.90625 -6.859375 C 0.90625 -7.722656 1.191406 -8.429688 1.765625 -8.984375 C 2.347656 -9.546875 3.160156 -9.828125 4.203125 -9.828125 C 5.367188 -9.828125 6.269531 -9.582031 6.90625 -9.09375 C 7.539062 -8.601562 7.882812 -7.828125 7.9375 -6.765625 Z M 6.71875 -6.765625 "/></g></g></g><g fill="#9f9b89" fill-opacity="1"><g transform="translate(72.141627, 12.576114)"><g><path d="M 8.140625 0 L 1.078125 0 L 1.078125 -9.5625 L 8.046875 -9.5625 L 8.046875 -8.421875 L 2.375 -8.421875 L 2.375 -5.5 L 7.609375 -5.5 L 7.609375 -4.34375 L 2.375 -4.34375 L 2.375 -1.140625 L 8.140625 -1.140625 Z M 8.140625 0 "/></g></g></g><g fill="#9f9b89" fill-opacity="1"><g transform="translate(84.794639, 12.576114)"><g><path d="M 7.40625 -9.5625 L 8.65625 -9.5625 L 8.65625 0 L 7.21875 0 L 2.34375 -7.734375 L 2.3125 -7.734375 L 2.3125 0 L 1.078125 0 L 1.078125 -9.5625 L 2.59375 -9.5625 L 7.390625 -1.84375 L 7.40625 -1.84375 Z M 7.40625 -9.5625 "/></g></g></g><g fill="#9f9b89" fill-opacity="1"><g transform="translate(98.527327, 12.576114)"><g><path d="M 8.65625 0 L 7.359375 0 L 7.359375 -4.46875 L 2.359375 -4.46875 L 2.359375 0 L 1.078125 0 L 1.078125 -9.5625 L 2.359375 -9.5625 L 2.359375 -5.609375 L 7.359375 -5.609375 L 7.359375 -9.5625 L 8.65625 -9.5625 Z M 8.65625 0 "/></g></g></g><g fill="#9f9b89" fill-opacity="1"><g transform="translate(112.247007, 12.576114)"><g><path d="M 5.859375 -3.9375 L 4.453125 -8.140625 L 4.421875 -8.140625 L 2.890625 -3.9375 Z M 2.5 -2.78125 L 1.484375 0 L 0.15625 0 L 3.765625 -9.5625 L 5.21875 -9.5625 L 8.6875 0 L 7.28125 0 L 6.328125 -2.78125 Z M 2.5 -2.78125 "/></g></g></g><g fill="#9f9b89" fill-opacity="1"><g transform="translate(124.926035, 12.576114)"><g><path d="M 6.71875 -6.765625 C 6.6875 -7.367188 6.457031 -7.84375 6.03125 -8.1875 C 5.601562 -8.539062 5.039062 -8.71875 4.34375 -8.71875 C 3.644531 -8.71875 3.101562 -8.570312 2.71875 -8.28125 C 2.34375 -7.988281 2.15625 -7.570312 2.15625 -7.03125 C 2.15625 -6.738281 2.238281 -6.488281 2.40625 -6.28125 C 2.570312 -6.070312 2.867188 -5.921875 3.296875 -5.828125 L 6.03125 -5.203125 C 6.757812 -5.035156 7.300781 -4.726562 7.65625 -4.28125 C 8.019531 -3.832031 8.203125 -3.285156 8.203125 -2.640625 C 8.203125 -1.691406 7.851562 -0.972656 7.15625 -0.484375 C 6.46875 0.00390625 5.566406 0.25 4.453125 0.25 C 3.609375 0.25 2.941406 0.144531 2.453125 -0.0625 C 1.960938 -0.28125 1.523438 -0.625 1.140625 -1.09375 C 0.765625 -1.570312 0.578125 -2.238281 0.578125 -3.09375 L 1.796875 -3.09375 C 1.796875 -2.382812 2.03125 -1.832031 2.5 -1.4375 C 2.976562 -1.050781 3.625 -0.859375 4.4375 -0.859375 C 5.226562 -0.859375 5.84375 -0.992188 6.28125 -1.265625 C 6.71875 -1.546875 6.9375 -1.945312 6.9375 -2.46875 C 6.9375 -2.9375 6.804688 -3.285156 6.546875 -3.515625 C 6.285156 -3.742188 5.773438 -3.945312 5.015625 -4.125 L 2.953125 -4.609375 C 2.265625 -4.765625 1.75 -5.035156 1.40625 -5.421875 C 1.070312 -5.816406 0.90625 -6.296875 0.90625 -6.859375 C 0.90625 -7.722656 1.191406 -8.429688 1.765625 -8.984375 C 2.347656 -9.546875 3.160156 -9.828125 4.203125 -9.828125 C 5.367188 -9.828125 6.269531 -9.582031 6.90625 -9.09375 C 7.539062 -8.601562 7.882812 -7.828125 7.9375 -6.765625 Z M 6.71875 -6.765625 "/></g></g></g><g fill="#9f9b89" fill-opacity="1"><g transform="translate(137.741648, 12.576114)"><g/></g></g><g fill="#9f9b89" fill-opacity="1"><g transform="translate(144.989776, 12.576114)"><g><path d="M 8.140625 0 L 1.078125 0 L 1.078125 -9.5625 L 8.046875 -9.5625 L 8.046875 -8.421875 L 2.375 -8.421875 L 2.375 -5.5 L 7.609375 -5.5 L 7.609375 -4.34375 L 2.375 -4.34375 L 2.375 -1.140625 L 8.140625 -1.140625 Z M 8.140625 0 "/></g></g></g><g fill="#9f9b89" fill-opacity="1"><g transform="translate(157.642788, 12.576114)"><g><path d="M 9 0 L 9 -5.65625 C 9 -5.726562 9 -6.085938 9 -6.734375 C 9.007812 -7.378906 9.015625 -7.8125 9.015625 -8.03125 L 8.984375 -8.03125 L 6.3125 0 L 5.03125 0 L 2.34375 -8.03125 L 2.296875 -8.03125 C 2.296875 -7.707031 2.300781 -7.25 2.3125 -6.65625 C 2.320312 -6.0625 2.328125 -5.726562 2.328125 -5.65625 L 2.328125 0 L 1.078125 0 L 1.078125 -9.5625 L 2.921875 -9.5625 L 5.65625 -1.484375 L 5.6875 -1.484375 L 8.390625 -9.5625 L 10.25 -9.5625 L 10.25 0 Z M 9 0 "/></g></g></g><g fill="#9f9b89" fill-opacity="1"><g transform="translate(172.96247, 12.576114)"><g/></g></g><g fill="#9f9b89" fill-opacity="1"><g transform="translate(180.210597, 12.576114)"><g><path d="M 8.546875 -9.5625 L 8.546875 -3.359375 C 8.546875 -2.296875 8.207031 -1.425781 7.53125 -0.75 C 6.863281 -0.0820312 5.914062 0.25 4.6875 0.25 C 3.539062 0.25 2.640625 -0.0546875 1.984375 -0.671875 C 1.335938 -1.296875 1.015625 -2.132812 1.015625 -3.1875 L 1.015625 -9.5625 L 2.296875 -9.5625 L 2.296875 -3.546875 C 2.296875 -2.660156 2.515625 -1.992188 2.953125 -1.546875 C 3.390625 -1.109375 3.976562 -0.890625 4.71875 -0.890625 C 5.507812 -0.890625 6.125 -1.109375 6.5625 -1.546875 C 7.007812 -1.992188 7.234375 -2.648438 7.234375 -3.515625 L 7.234375 -9.5625 Z M 8.546875 -9.5625 "/></g></g></g><g fill="#9f9b89" fill-opacity="1"><g transform="translate(193.741659, 12.576114)"><g><path d="M 9 0 L 9 -5.65625 C 9 -5.726562 9 -6.085938 9 -6.734375 C 9.007812 -7.378906 9.015625 -7.8125 9.015625 -8.03125 L 8.984375 -8.03125 L 6.3125 0 L 5.03125 0 L 2.34375 -8.03125 L 2.296875 -8.03125 C 2.296875 -7.707031 2.300781 -7.25 2.3125 -6.65625 C 2.320312 -6.0625 2.328125 -5.726562 2.328125 -5.65625 L 2.328125 0 L 1.078125 0 L 1.078125 -9.5625 L 2.921875 -9.5625 L 5.65625 -1.484375 L 5.6875 -1.484375 L 8.390625 -9.5625 L 10.25 -9.5625 L 10.25 0 Z M 9 0 "/></g></g></g><g fill="#9f9b89" fill-opacity="1"><g transform="translate(0.756894, 30.336567)"><g><path d="M 6.71875 -6.765625 C 6.6875 -7.367188 6.457031 -7.84375 6.03125 -8.1875 C 5.601562 -8.539062 5.039062 -8.71875 4.34375 -8.71875 C 3.644531 -8.71875 3.101562 -8.570312 2.71875 -8.28125 C 2.34375 -7.988281 2.15625 -7.570312 2.15625 -7.03125 C 2.15625 -6.738281 2.238281 -6.488281 2.40625 -6.28125 C 2.570312 -6.070312 2.867188 -5.921875 3.296875 -5.828125 L 6.03125 -5.203125 C 6.757812 -5.035156 7.300781 -4.726562 7.65625 -4.28125 C 8.019531 -3.832031 8.203125 -3.285156 8.203125 -2.640625 C 8.203125 -1.691406 7.851562 -0.972656 7.15625 -0.484375 C 6.46875 0.00390625 5.566406 0.25 4.453125 0.25 C 3.609375 0.25 2.941406 0.144531 2.453125 -0.0625 C 1.960938 -0.28125 1.523438 -0.625 1.140625 -1.09375 C 0.765625 -1.570312 0.578125 -2.238281 0.578125 -3.09375 L 1.796875 -3.09375 C 1.796875 -2.382812 2.03125 -1.832031 2.5 -1.4375 C 2.976562 -1.050781 3.625 -0.859375 4.4375 -0.859375 C 5.226562 -0.859375 5.84375 -0.992188 6.28125 -1.265625 C 6.71875 -1.546875 6.9375 -1.945312 6.9375 -2.46875 C 6.9375 -2.9375 6.804688 -3.285156 6.546875 -3.515625 C 6.285156 -3.742188 5.773438 -3.945312 5.015625 -4.125 L 2.953125 -4.609375 C 2.265625 -4.765625 1.75 -5.035156 1.40625 -5.421875 C 1.070312 -5.816406 0.90625 -6.296875 0.90625 -6.859375 C 0.90625 -7.722656 1.191406 -8.429688 1.765625 -8.984375 C 2.347656 -9.546875 3.160156 -9.828125 4.203125 -9.828125 C 5.367188 -9.828125 6.269531 -9.582031 6.90625 -9.09375 C 7.539062 -8.601562 7.882812 -7.828125 7.9375 -6.765625 Z M 6.71875 -6.765625 "/></g></g></g><g fill="#9f9b89" fill-opacity="1"><g transform="translate(13.572508, 30.336567)"><g><path d="M 8.515625 -4.78125 C 8.515625 -5.90625 8.21875 -6.832031 7.625 -7.5625 C 7.03125 -8.300781 6.21875 -8.671875 5.1875 -8.671875 C 4.164062 -8.671875 3.351562 -8.300781 2.75 -7.5625 C 2.15625 -6.832031 1.859375 -5.90625 1.859375 -4.78125 C 1.859375 -3.625 2.160156 -2.6875 2.765625 -1.96875 C 3.367188 -1.25 4.175781 -0.890625 5.1875 -0.890625 C 6.175781 -0.890625 6.976562 -1.238281 7.59375 -1.9375 C 8.207031 -2.644531 8.515625 -3.59375 8.515625 -4.78125 Z M 9.84375 -4.78125 C 9.84375 -3.351562 9.429688 -2.15625 8.609375 -1.1875 C 7.785156 -0.226562 6.644531 0.25 5.1875 0.25 C 3.71875 0.25 2.570312 -0.226562 1.75 -1.1875 C 0.925781 -2.15625 0.515625 -3.351562 0.515625 -4.78125 C 0.515625 -6.21875 0.925781 -7.414062 1.75 -8.375 C 2.570312 -9.34375 3.71875 -9.828125 5.1875 -9.828125 C 6.6875 -9.828125 7.835938 -9.332031 8.640625 -8.34375 C 9.441406 -7.363281 9.84375 -6.175781 9.84375 -4.78125 Z M 5.484375 -10.4375 L 4.609375 -10.4375 L 5.546875 -12.3125 L 6.953125 -12.3125 Z M 5.484375 -10.4375 "/></g></g></g><g fill="#9f9b89" fill-opacity="1"><g transform="translate(27.929587, 30.336567)"><g/></g></g><g fill="#9f9b89" fill-opacity="1"><g transform="translate(35.177715, 30.336567)"><g><path d="M 2.359375 -1.140625 L 7.21875 -1.140625 L 7.21875 0 L 1.078125 0 L 1.078125 -9.5625 L 2.359375 -9.5625 Z M 2.359375 -1.140625 "/></g></g></g><g fill="#9f9b89" fill-opacity="1"><g transform="translate(46.380318, 30.336567)"><g><path d="M 8.546875 -9.5625 L 8.546875 -3.359375 C 8.546875 -2.296875 8.207031 -1.425781 7.53125 -0.75 C 6.863281 -0.0820312 5.914062 0.25 4.6875 0.25 C 3.539062 0.25 2.640625 -0.0546875 1.984375 -0.671875 C 1.335938 -1.296875 1.015625 -2.132812 1.015625 -3.1875 L 1.015625 -9.5625 L 2.296875 -9.5625 L 2.296875 -3.546875 C 2.296875 -2.660156 2.515625 -1.992188 2.953125 -1.546875 C 3.390625 -1.109375 3.976562 -0.890625 4.71875 -0.890625 C 5.507812 -0.890625 6.125 -1.109375 6.5625 -1.546875 C 7.007812 -1.992188 7.234375 -2.648438 7.234375 -3.515625 L 7.234375 -9.5625 Z M 8.546875 -9.5625 "/></g></g></g><g fill="#9f9b89" fill-opacity="1"><g transform="translate(59.91138, 30.336567)"><g><path d="M 5.125 -5.109375 L 9.328125 -5.109375 L 9.328125 0 L 8.5 0 L 8.1875 -1.234375 C 7.769531 -0.710938 7.285156 -0.332031 6.734375 -0.09375 C 6.191406 0.132812 5.625 0.25 5.03125 0.25 C 4.0625 0.25 3.253906 0.0390625 2.609375 -0.375 C 1.972656 -0.789062 1.472656 -1.367188 1.109375 -2.109375 C 0.753906 -2.847656 0.578125 -3.769531 0.578125 -4.875 C 0.578125 -6.25 0.988281 -7.414062 1.8125 -8.375 C 2.632812 -9.34375 3.734375 -9.828125 5.109375 -9.828125 C 6.148438 -9.828125 7.054688 -9.535156 7.828125 -8.953125 C 8.597656 -8.378906 9.046875 -7.617188 9.171875 -6.671875 L 7.921875 -6.671875 C 7.765625 -7.296875 7.441406 -7.785156 6.953125 -8.140625 C 6.460938 -8.492188 5.828125 -8.671875 5.046875 -8.671875 C 4.109375 -8.671875 3.351562 -8.316406 2.78125 -7.609375 C 2.207031 -6.898438 1.921875 -5.960938 1.921875 -4.796875 C 1.921875 -3.441406 2.203125 -2.445312 2.765625 -1.8125 C 3.335938 -1.175781 4.117188 -0.859375 5.109375 -0.859375 C 5.742188 -0.859375 6.285156 -0.984375 6.734375 -1.234375 C 7.179688 -1.484375 7.519531 -1.828125 7.75 -2.265625 C 7.988281 -2.703125 8.109375 -3.285156 8.109375 -4.015625 L 5.125 -4.015625 Z M 5.125 -5.109375 "/></g></g></g><g fill="#9f9b89" fill-opacity="1"><g transform="translate(74.177402, 30.336567)"><g><path d="M 5.859375 -3.9375 L 4.453125 -8.140625 L 4.421875 -8.140625 L 2.890625 -3.9375 Z M 2.5 -2.78125 L 1.484375 0 L 0.15625 0 L 3.765625 -9.5625 L 5.21875 -9.5625 L 8.6875 0 L 7.28125 0 L 6.328125 -2.78125 Z M 2.5 -2.78125 "/></g></g></g><g fill="#9f9b89" fill-opacity="1"><g transform="translate(87.058056, 30.336567)"><g><path d="M 2.375 -5.21875 L 5.375 -5.21875 C 6.0625 -5.21875 6.554688 -5.359375 6.859375 -5.640625 C 7.160156 -5.921875 7.3125 -6.328125 7.3125 -6.859375 C 7.3125 -7.347656 7.179688 -7.734375 6.921875 -8.015625 C 6.660156 -8.304688 6.210938 -8.453125 5.578125 -8.453125 L 2.375 -8.453125 Z M 2.375 0 L 1.078125 0 L 1.078125 -9.5625 L 5.5 -9.5625 C 6.53125 -9.5625 7.3125 -9.34375 7.84375 -8.90625 C 8.375 -8.46875 8.640625 -7.832031 8.640625 -7 C 8.640625 -6.445312 8.53125 -5.984375 8.3125 -5.609375 C 8.101562 -5.242188 7.769531 -4.941406 7.3125 -4.703125 C 7.707031 -4.554688 7.988281 -4.351562 8.15625 -4.09375 C 8.332031 -3.84375 8.429688 -3.445312 8.453125 -2.90625 L 8.546875 -1.125 C 8.554688 -0.820312 8.601562 -0.609375 8.6875 -0.484375 C 8.769531 -0.367188 8.890625 -0.28125 9.046875 -0.21875 L 9.046875 0 L 7.4375 0 C 7.351562 -0.238281 7.289062 -0.597656 7.25 -1.078125 C 7.21875 -1.566406 7.203125 -2.007812 7.203125 -2.40625 C 7.203125 -2.59375 7.1875 -2.789062 7.15625 -3 C 7.125 -3.207031 7.046875 -3.390625 6.921875 -3.546875 C 6.804688 -3.710938 6.632812 -3.847656 6.40625 -3.953125 C 6.1875 -4.054688 5.882812 -4.109375 5.5 -4.109375 L 2.375 -4.109375 Z M 2.375 0 "/></g></g></g><g fill="#9f9b89" fill-opacity="1"><g transform="translate(100.563101, 30.336567)"><g><path d="M 2.5 0 L 1.203125 0 L 1.203125 -1.359375 L 2.5 -1.359375 Z M 1.515625 -2.28125 L 1.203125 -6.40625 L 1.203125 -9.5625 L 2.5 -9.5625 L 2.5 -6.40625 L 2.171875 -2.28125 Z M 1.515625 -2.28125 "/></g></g></g></g></g></svg>