<svg xmlns="http://www.w3.org/2000/svg" xmlns:xlink="http://www.w3.org/1999/xlink" width="500" zoomAndPan="magnify" viewBox="0 0 375 374.999991" height="500" preserveAspectRatio="xMidYMid meet" version="1.0"><defs><g/><clipPath id="bd3d3de0ce"><path d="M 25 107.152344 L 67 107.152344 L 67 175 L 25 175 Z M 25 107.152344 " clip-rule="nonzero"/></clipPath><clipPath id="c50e43fbf9"><path d="M 41 139 L 143 139 L 143 267.652344 L 41 267.652344 Z M 41 139 " clip-rule="nonzero"/></clipPath><clipPath id="7351851781"><path d="M 11.816406 107.152344 L 113 107.152344 L 113 248 L 11.816406 248 Z M 11.816406 107.152344 " clip-rule="nonzero"/></clipPath><clipPath id="6b126489b3"><path d="M 11.816406 194 L 40 194 L 40 267.652344 L 11.816406 267.652344 Z M 11.816406 194 " clip-rule="nonzero"/></clipPath><clipPath id="4dc7f393a0"><rect x="0" width="209" y="0" height="115"/></clipPath></defs><path fill="#5170ff" d="M 43.554688 174.289062 C 41.175781 174.289062 39.246094 172.359375 39.246094 169.980469 L 39.246094 143.597656 C 39.246094 130.835938 49.628906 120.488281 62.351562 120.488281 C 64.730469 120.488281 66.660156 122.417969 66.660156 124.796875 C 66.660156 127.175781 64.730469 129.101562 62.351562 129.101562 C 54.351562 129.101562 47.859375 135.59375 47.859375 143.597656 L 47.859375 169.980469 C 47.859375 172.359375 45.929688 174.289062 43.554688 174.289062 Z M 43.554688 174.289062 " fill-opacity="1" fill-rule="nonzero"/><g clip-path="url(#bd3d3de0ce)"><path fill="#5170ff" d="M 30.214844 174.289062 C 27.835938 174.289062 25.910156 172.359375 25.910156 169.980469 L 25.910156 143.597656 C 25.910156 123.511719 42.265625 107.152344 62.351562 107.152344 C 64.730469 107.152344 66.660156 109.082031 66.660156 111.457031 C 66.660156 113.835938 64.730469 115.765625 62.351562 115.765625 C 47.023438 115.765625 34.523438 128.234375 34.523438 143.597656 L 34.523438 169.980469 C 34.523438 172.359375 32.59375 174.289062 30.214844 174.289062 Z M 30.214844 174.289062 " fill-opacity="1" fill-rule="nonzero"/></g><path fill="#5170ff" d="M 70.835938 207.742188 C 70.835938 212.433594 67.046875 216.226562 62.351562 216.226562 C 57.660156 216.226562 53.867188 212.433594 53.867188 207.742188 C 53.867188 203.050781 57.660156 199.257812 62.351562 199.257812 C 67.046875 199.257812 70.835938 203.082031 70.835938 207.742188 Z M 70.835938 207.742188 " fill-opacity="1" fill-rule="nonzero"/><g clip-path="url(#c50e43fbf9)"><path fill="#5170ff" d="M 62.351562 247.078125 L 54.03125 247.078125 C 52.261719 247.078125 50.589844 246.308594 49.464844 244.988281 C 48.339844 243.640625 47.828125 241.871094 48.117188 240.136719 L 50.625 224.421875 C 44.644531 220.246094 41.304688 213.207031 41.945312 205.816406 C 42.75 196.558594 49.371094 187.238281 62.386719 187.238281 C 64.28125 187.238281 65.824219 188.78125 65.824219 190.679688 C 65.824219 192.574219 64.28125 194.117188 62.386719 194.117188 C 53.160156 194.117188 49.304688 200.738281 48.824219 206.394531 C 48.339844 211.855469 51.167969 217.0625 56.023438 219.632812 C 57.339844 220.308594 58.046875 221.753906 57.820312 223.234375 L 55.121094 240.167969 L 62.351562 240.167969 C 64.25 240.167969 65.792969 241.710938 65.792969 243.609375 C 65.792969 245.535156 64.25 247.078125 62.351562 247.078125 Z M 112.746094 244.378906 L 112.746094 202.152344 C 112.746094 199.773438 110.816406 197.84375 108.4375 197.84375 C 106.058594 197.84375 104.132812 199.773438 104.132812 202.152344 L 104.132812 244.378906 C 104.132812 252.542969 97.480469 259.226562 89.285156 259.226562 L 47.472656 259.226562 C 45.09375 259.226562 43.167969 261.15625 43.167969 263.535156 C 43.167969 265.910156 45.09375 267.839844 47.472656 267.839844 L 89.285156 267.839844 C 102.234375 267.839844 112.746094 257.296875 112.746094 244.378906 Z M 112.648438 159.824219 L 116.921875 144.785156 C 117.566406 142.503906 116.246094 140.09375 113.964844 139.449219 C 111.683594 138.808594 109.273438 140.125 108.632812 142.40625 L 104.355469 157.449219 C 103.714844 159.730469 105.03125 162.140625 107.3125 162.78125 C 107.699219 162.910156 108.117188 162.941406 108.503906 162.941406 C 110.367188 162.976562 112.101562 161.753906 112.648438 159.824219 Z M 121.421875 171.007812 L 136.207031 162.78125 C 138.292969 161.625 139.035156 158.988281 137.875 156.933594 C 136.71875 154.84375 134.085938 154.105469 132.027344 155.261719 L 117.246094 163.488281 C 115.15625 164.644531 114.417969 167.28125 115.574219 169.339844 C 116.34375 170.753906 117.824219 171.554688 119.332031 171.554688 C 120.039062 171.554688 120.78125 171.394531 121.421875 171.007812 Z M 142.570312 187.175781 C 143.210938 184.894531 141.894531 182.484375 139.613281 181.839844 L 122.097656 176.859375 C 119.816406 176.214844 117.40625 177.535156 116.761719 179.816406 C 116.121094 182.097656 117.4375 184.507812 119.71875 185.148438 L 137.234375 190.132812 C 137.621094 190.261719 138.039062 190.292969 138.421875 190.292969 C 140.320312 190.292969 142.054688 189.070312 142.570312 187.175781 Z M 142.570312 187.175781 " fill-opacity="1" fill-rule="nonzero"/></g><g clip-path="url(#7351851781)"><path fill="#5170ff" d="M 16.203125 203.566406 C 13.824219 203.566406 11.898438 201.636719 11.898438 199.257812 L 11.898438 189.777344 C 11.898438 176.828125 22.4375 166.316406 35.359375 166.316406 L 89.285156 166.316406 C 102.234375 166.316406 112.746094 176.859375 112.746094 189.777344 C 112.746094 192.15625 110.816406 194.085938 108.4375 194.085938 C 106.058594 194.085938 104.132812 192.15625 104.132812 189.777344 C 104.132812 181.613281 97.480469 174.929688 89.285156 174.929688 L 35.359375 174.929688 C 27.195312 174.929688 20.511719 181.582031 20.511719 189.777344 L 20.511719 199.257812 C 20.542969 201.636719 18.613281 203.566406 16.203125 203.566406 Z M 88 154.234375 C 93.367188 154.167969 98.796875 150.472656 98.796875 143.597656 C 98.796875 134.339844 95.292969 125.503906 88.964844 118.722656 C 82.117188 111.363281 72.378906 107.152344 62.351562 107.152344 C 59.976562 107.152344 58.046875 109.082031 58.046875 111.457031 C 58.046875 113.835938 59.976562 115.765625 62.351562 115.765625 C 70.003906 115.765625 77.425781 118.980469 82.664062 124.601562 C 87.484375 129.777344 90.152344 136.527344 90.152344 143.597656 C 90.152344 145.234375 88.898438 145.589844 87.839844 145.589844 C 87.035156 145.589844 86.296875 145.363281 85.878906 144.945312 C 85.683594 144.753906 85.429688 144.398438 85.429688 143.597656 C 85.429688 130.835938 75.046875 120.488281 62.320312 120.488281 C 59.941406 120.488281 58.015625 122.417969 58.015625 124.796875 C 58.015625 127.175781 59.941406 129.101562 62.320312 129.101562 C 70.324219 129.101562 76.816406 135.59375 76.816406 143.597656 C 76.816406 146.554688 77.875 149.125 79.835938 151.085938 C 81.859375 153.078125 84.753906 154.234375 87.773438 154.234375 C 87.871094 154.234375 87.933594 154.234375 88 154.234375 Z M 75.242188 244.957031 C 76.367188 243.609375 76.878906 241.871094 76.589844 240.105469 L 74.082031 224.390625 C 80.027344 220.210938 83.402344 213.175781 82.761719 205.78125 C 81.957031 196.527344 75.335938 187.207031 62.320312 187.207031 C 60.425781 187.207031 58.882812 188.75 58.882812 190.644531 C 58.882812 192.542969 60.425781 194.085938 62.320312 194.085938 C 71.542969 194.085938 75.402344 200.703125 75.882812 206.359375 C 76.367188 211.824219 73.539062 217.03125 68.683594 219.601562 C 67.367188 220.277344 66.660156 221.722656 66.886719 223.199219 L 69.585938 240.136719 L 62.351562 240.136719 C 60.457031 240.136719 58.914062 241.679688 58.914062 243.574219 C 58.914062 245.472656 60.457031 247.015625 62.351562 247.015625 L 70.675781 247.015625 C 72.445312 247.078125 74.117188 246.308594 75.242188 244.957031 Z M 69.808594 241.199219 Z M 69.808594 241.199219 " fill-opacity="1" fill-rule="nonzero"/></g><g clip-path="url(#6b126489b3)"><path fill="#5170ff" d="M 35.359375 267.839844 C 22.40625 267.839844 11.898438 257.296875 11.898438 244.378906 L 11.898438 199.257812 C 11.898438 196.878906 13.824219 194.953125 16.203125 194.953125 C 18.582031 194.953125 20.511719 196.878906 20.511719 199.257812 L 20.511719 244.378906 C 20.511719 252.542969 27.164062 259.226562 35.359375 259.226562 C 37.734375 259.226562 39.664062 261.15625 39.664062 263.535156 C 39.664062 265.910156 37.734375 267.839844 35.359375 267.839844 Z M 35.359375 267.839844 " fill-opacity="1" fill-rule="nonzero"/></g><g transform="matrix(1, 0, 0, 1, 156, 143)"><g clip-path="url(#4dc7f393a0)"><g fill="#5170ff" fill-opacity="1"><g transform="translate(1.206935, 43.457616)"><g><path d="M 19 1.015625 C 16.5 1.015625 14.300781 0.753906 12.40625 0.234375 C 10.519531 -0.285156 8.90625 -0.992188 7.5625 -1.890625 C 6.21875 -2.796875 5.125 -3.828125 4.28125 -4.984375 C 3.445312 -6.140625 2.832031 -7.375 2.4375 -8.6875 C 2.050781 -10 1.859375 -11.316406 1.859375 -12.640625 L 11.375 -12.640625 C 11.375 -10.941406 12.035156 -9.570312 13.359375 -8.53125 C 14.679688 -7.488281 16.550781 -6.96875 18.96875 -6.96875 C 21.632812 -6.96875 23.539062 -7.359375 24.6875 -8.140625 C 25.84375 -8.921875 26.421875 -10.082031 26.421875 -11.625 C 26.421875 -12.5625 26.101562 -13.335938 25.46875 -13.953125 C 24.84375 -14.578125 23.914062 -15.109375 22.6875 -15.546875 C 21.46875 -15.992188 19.976562 -16.414062 18.21875 -16.8125 C 16.84375 -17.15625 15.4375 -17.546875 14 -17.984375 C 12.570312 -18.421875 11.191406 -18.960938 9.859375 -19.609375 C 8.523438 -20.265625 7.332031 -21.050781 6.28125 -21.96875 C 5.238281 -22.894531 4.410156 -24.003906 3.796875 -25.296875 C 3.179688 -26.585938 2.875 -28.09375 2.875 -29.8125 C 2.875 -32.195312 3.453125 -34.285156 4.609375 -36.078125 C 5.773438 -37.878906 7.523438 -39.289062 9.859375 -40.3125 C 12.191406 -41.332031 15.117188 -41.84375 18.640625 -41.84375 C 22.203125 -41.84375 25.171875 -41.3125 27.546875 -40.25 C 29.921875 -39.195312 31.695312 -37.707031 32.875 -35.78125 C 34.050781 -33.863281 34.640625 -31.601562 34.640625 -29 L 25.125 -29 C 25.125 -29.757812 24.914062 -30.488281 24.5 -31.1875 C 24.09375 -31.894531 23.410156 -32.46875 22.453125 -32.90625 C 21.492188 -33.34375 20.179688 -33.5625 18.515625 -33.5625 C 16.835938 -33.5625 15.554688 -33.367188 14.671875 -32.984375 C 13.796875 -32.609375 13.195312 -32.128906 12.875 -31.546875 C 12.5625 -30.972656 12.40625 -30.375 12.40625 -29.75 C 12.40625 -28.445312 13.125 -27.421875 14.5625 -26.671875 C 16 -25.921875 18.320312 -25.242188 21.53125 -24.640625 C 23.570312 -24.222656 25.472656 -23.675781 27.234375 -23 C 28.992188 -22.332031 30.53125 -21.488281 31.84375 -20.46875 C 33.164062 -19.445312 34.195312 -18.207031 34.9375 -16.75 C 35.6875 -15.289062 36.0625 -13.570312 36.0625 -11.59375 C 36.0625 -8.863281 35.335938 -6.5625 33.890625 -4.6875 C 32.453125 -2.820312 30.457031 -1.40625 27.90625 -0.4375 C 25.351562 0.53125 22.382812 1.015625 19 1.015625 Z M 19 1.015625 "/></g></g></g><g fill="#5170ff" fill-opacity="1"><g transform="translate(38.938691, 43.457616)"><g><path d="M 33.234375 0 L 4.171875 0 L 4.171875 -40.828125 L 32.96875 -40.828125 L 32.96875 -32.390625 L 13.6875 -32.390625 L 13.6875 -24.671875 L 30.234375 -24.671875 L 30.234375 -16.75 L 13.6875 -16.75 L 13.6875 -8.46875 L 33.234375 -8.46875 Z M 33.234375 0 "/></g></g></g><g fill="#5170ff" fill-opacity="1"><g transform="translate(73.938863, 43.457616)"><g><path d="M 13.6875 0 L 4.171875 0 L 4.171875 -40.828125 L 12.484375 -40.828125 L 31.9375 -15.484375 L 31.9375 -40.828125 L 41.453125 -40.828125 L 41.453125 0 L 33.234375 0 L 13.71875 -25.375 L 13.6875 -25.375 Z M 13.6875 0 "/></g></g></g><g fill="#5170ff" fill-opacity="1"><g transform="translate(119.565159, 43.457616)"><g><path d="M 13.6875 0 L 4.171875 0 L 4.171875 -40.828125 L 13.6875 -40.828125 L 13.6875 -24.921875 L 31.515625 -24.921875 L 31.515625 -40.828125 L 41.0625 -40.828125 L 41.0625 0 L 31.515625 0 L 31.515625 -16.484375 L 13.6875 -16.484375 Z M 13.6875 0 "/></g></g></g><g fill="#5170ff" fill-opacity="1"><g transform="translate(164.80124, 43.457616)"><g><path d="M 42.578125 0 L 32.515625 0 L 29.875 -6.640625 L 12.84375 -6.640625 L 10.203125 0 L 0.15625 0 L 16.90625 -40.859375 L 25.8125 -40.859375 Z M 21.046875 -27.296875 L 15.96875 -14.53125 L 26.75 -14.53125 L 21.671875 -27.296875 L 21.40625 -28.546875 L 21.3125 -28.546875 Z M 21.046875 -27.296875 "/></g></g></g><g fill="#5170ff" fill-opacity="1"><g transform="translate(8.579649, 103.133236)"><g><path d="M 23.390625 0.9375 C 20.960938 0.9375 18.65625 0.578125 16.46875 -0.140625 C 14.289062 -0.867188 12.289062 -1.882812 10.46875 -3.1875 C 8.65625 -4.488281 7.082031 -6.03125 5.75 -7.8125 C 4.414062 -9.601562 3.382812 -11.570312 2.65625 -13.71875 C 1.925781 -15.863281 1.5625 -18.113281 1.5625 -20.46875 C 1.5625 -22.851562 1.925781 -25.113281 2.65625 -27.25 C 3.382812 -29.394531 4.414062 -31.351562 5.75 -33.125 C 7.082031 -34.894531 8.65625 -36.4375 10.46875 -37.75 C 12.289062 -39.0625 14.289062 -40.070312 16.46875 -40.78125 C 18.65625 -41.488281 20.960938 -41.84375 23.390625 -41.84375 C 25.109375 -41.84375 26.847656 -41.632812 28.609375 -41.21875 C 30.367188 -40.800781 32.0625 -40.15625 33.6875 -39.28125 C 35.320312 -38.414062 36.828125 -37.304688 38.203125 -35.953125 C 39.578125 -34.597656 40.734375 -32.992188 41.671875 -31.140625 C 42.609375 -29.296875 43.25 -27.179688 43.59375 -24.796875 L 33.890625 -24.796875 C 33.410156 -26.796875 32.644531 -28.40625 31.59375 -29.625 C 30.539062 -30.851562 29.289062 -31.742188 27.84375 -32.296875 C 26.394531 -32.859375 24.816406 -33.140625 23.109375 -33.140625 C 21.472656 -33.140625 19.921875 -32.847656 18.453125 -32.265625 C 16.992188 -31.691406 15.710938 -30.851562 14.609375 -29.75 C 13.515625 -28.644531 12.648438 -27.3125 12.015625 -25.75 C 11.390625 -24.195312 11.078125 -22.425781 11.078125 -20.4375 C 11.078125 -18.414062 11.390625 -16.617188 12.015625 -15.046875 C 12.648438 -13.484375 13.515625 -12.160156 14.609375 -11.078125 C 15.710938 -9.992188 16.992188 -9.171875 18.453125 -8.609375 C 19.921875 -8.054688 21.472656 -7.78125 23.109375 -7.78125 C 24.796875 -7.78125 26.363281 -8.054688 27.8125 -8.609375 C 29.257812 -9.171875 30.515625 -10.0625 31.578125 -11.28125 C 32.640625 -12.507812 33.398438 -14.113281 33.859375 -16.09375 L 43.59375 -16.09375 C 43.25 -13.707031 42.609375 -11.59375 41.671875 -9.75 C 40.734375 -7.914062 39.585938 -6.320312 38.234375 -4.96875 C 36.878906 -3.613281 35.378906 -2.5 33.734375 -1.625 C 32.097656 -0.757812 30.398438 -0.117188 28.640625 0.296875 C 26.878906 0.722656 25.128906 0.9375 23.390625 0.9375 Z M 23.390625 0.9375 "/></g></g></g><g fill="#5170ff" fill-opacity="1"><g transform="translate(53.755697, 103.133236)"><g><path d="M 33.234375 0 L 4.171875 0 L 4.171875 -40.828125 L 32.96875 -40.828125 L 32.96875 -32.390625 L 13.6875 -32.390625 L 13.6875 -24.671875 L 30.234375 -24.671875 L 30.234375 -16.75 L 13.6875 -16.75 L 13.6875 -8.46875 L 33.234375 -8.46875 Z M 33.234375 0 "/></g></g></g><g fill="#5170ff" fill-opacity="1"><g transform="translate(88.755868, 103.133236)"><g><path d="M 13.6875 0 L 4.171875 0 L 4.171875 -40.828125 L 22.09375 -40.828125 C 24.257812 -40.828125 26.238281 -40.492188 28.03125 -39.828125 C 29.820312 -39.171875 31.375 -38.234375 32.6875 -37.015625 C 34.007812 -35.796875 35.03125 -34.34375 35.75 -32.65625 C 36.476562 -30.976562 36.84375 -29.117188 36.84375 -27.078125 C 36.84375 -25.234375 36.519531 -23.53125 35.875 -21.96875 C 35.238281 -20.414062 34.34375 -19.0625 33.1875 -17.90625 C 32.039062 -16.757812 30.675781 -15.84375 29.09375 -15.15625 L 37.796875 0 L 26.90625 0 L 19.75 -13.65625 L 13.6875 -13.65625 Z M 13.6875 -32.359375 L 13.6875 -21.609375 L 21.703125 -21.609375 C 22.765625 -21.609375 23.710938 -21.84375 24.546875 -22.3125 C 25.390625 -22.789062 26.0625 -23.4375 26.5625 -24.25 C 27.0625 -25.070312 27.3125 -26.015625 27.3125 -27.078125 C 27.3125 -28.035156 27.0625 -28.914062 26.5625 -29.71875 C 26.0625 -30.519531 25.382812 -31.160156 24.53125 -31.640625 C 23.6875 -32.117188 22.742188 -32.359375 21.703125 -32.359375 Z M 13.6875 -32.359375 "/></g></g></g><g fill="#5170ff" fill-opacity="1"><g transform="translate(127.298081, 103.133236)"><g><path d="M 22 0 L 12.546875 0 L 12.546875 -32.359375 L 1.109375 -32.359375 L 1.109375 -40.828125 L 33.421875 -40.828125 L 33.421875 -32.359375 L 22 -32.359375 Z M 22 0 "/></g></g></g><g fill="#5170ff" fill-opacity="1"><g transform="translate(157.405125, 103.133236)"><g><path d="M 42.578125 0 L 32.515625 0 L 29.875 -6.640625 L 12.84375 -6.640625 L 10.203125 0 L 0.15625 0 L 16.90625 -40.859375 L 25.8125 -40.859375 Z M 21.046875 -27.296875 L 15.96875 -14.53125 L 26.75 -14.53125 L 21.671875 -27.296875 L 21.40625 -28.546875 L 21.3125 -28.546875 Z M 21.046875 -27.296875 "/></g></g></g></g></g></svg>